<mxfile host="app.diagrams.net" agent="Mozilla/5.0 (Macintosh; Intel Mac OS X 10_15_7) AppleWebKit/537.36 (KHTML, like Gecko) Chrome/128.0.0.0 Safari/537.36" version="24.7.10">
  <diagram id="C5RBs43oDa-KdzZeNtuy" name="Page-1">
    <mxGraphModel dx="954" dy="606" grid="1" gridSize="10" guides="1" tooltips="1" connect="1" arrows="1" fold="1" page="1" pageScale="1" pageWidth="827" pageHeight="1169" math="0" shadow="0">
      <root>
        <mxCell id="WIyWlLk6GJQsqaUBKTNV-0" />
        <mxCell id="WIyWlLk6GJQsqaUBKTNV-1" parent="WIyWlLk6GJQsqaUBKTNV-0" />
        <mxCell id="nIoF4qgthl-8SXtbTpO0-2" value="" style="ellipse;html=1;shape=startState;fillColor=#000000;strokeColor=#ff0000;" vertex="1" parent="WIyWlLk6GJQsqaUBKTNV-1">
          <mxGeometry x="410" y="10" width="30" height="30" as="geometry" />
        </mxCell>
        <mxCell id="nIoF4qgthl-8SXtbTpO0-3" value="" style="edgeStyle=orthogonalEdgeStyle;html=1;verticalAlign=bottom;endArrow=open;endSize=8;strokeColor=#ff0000;rounded=0;" edge="1" source="nIoF4qgthl-8SXtbTpO0-2" parent="WIyWlLk6GJQsqaUBKTNV-1">
          <mxGeometry relative="1" as="geometry">
            <mxPoint x="425" y="100" as="targetPoint" />
          </mxGeometry>
        </mxCell>
        <mxCell id="nIoF4qgthl-8SXtbTpO0-4" value="Oppretter scanner" style="rounded=1;whiteSpace=wrap;html=1;" vertex="1" parent="WIyWlLk6GJQsqaUBKTNV-1">
          <mxGeometry x="365" y="100" width="120" height="20" as="geometry" />
        </mxCell>
        <mxCell id="nIoF4qgthl-8SXtbTpO0-7" value="" style="endArrow=classic;html=1;rounded=0;exitX=0.5;exitY=1;exitDx=0;exitDy=0;" edge="1" parent="WIyWlLk6GJQsqaUBKTNV-1" source="nIoF4qgthl-8SXtbTpO0-4" target="nIoF4qgthl-8SXtbTpO0-6">
          <mxGeometry width="50" height="50" relative="1" as="geometry">
            <mxPoint x="425" y="160" as="sourcePoint" />
            <mxPoint x="425" y="220" as="targetPoint" />
          </mxGeometry>
        </mxCell>
        <mxCell id="nIoF4qgthl-8SXtbTpO0-101" style="edgeStyle=orthogonalEdgeStyle;rounded=0;orthogonalLoop=1;jettySize=auto;html=1;exitX=0.5;exitY=1;exitDx=0;exitDy=0;" edge="1" parent="WIyWlLk6GJQsqaUBKTNV-1" source="nIoF4qgthl-8SXtbTpO0-6" target="nIoF4qgthl-8SXtbTpO0-20">
          <mxGeometry relative="1" as="geometry" />
        </mxCell>
        <mxCell id="nIoF4qgthl-8SXtbTpO0-6" value="Definerer metoder som konverterer fra og til nok" style="rounded=1;whiteSpace=wrap;html=1;" vertex="1" parent="WIyWlLk6GJQsqaUBKTNV-1">
          <mxGeometry x="365" y="140" width="120" height="40" as="geometry" />
        </mxCell>
        <mxCell id="nIoF4qgthl-8SXtbTpO0-25" value="" style="edgeStyle=orthogonalEdgeStyle;rounded=0;orthogonalLoop=1;jettySize=auto;html=1;" edge="1" parent="WIyWlLk6GJQsqaUBKTNV-1" source="nIoF4qgthl-8SXtbTpO0-9" target="nIoF4qgthl-8SXtbTpO0-23">
          <mxGeometry relative="1" as="geometry" />
        </mxCell>
        <mxCell id="nIoF4qgthl-8SXtbTpO0-9" value="Viser menyvalg for valutaer" style="rounded=1;whiteSpace=wrap;html=1;" vertex="1" parent="WIyWlLk6GJQsqaUBKTNV-1">
          <mxGeometry x="365" y="290" width="120" height="30" as="geometry" />
        </mxCell>
        <mxCell id="nIoF4qgthl-8SXtbTpO0-102" style="edgeStyle=orthogonalEdgeStyle;rounded=0;orthogonalLoop=1;jettySize=auto;html=1;exitX=0.5;exitY=1;exitDx=0;exitDy=0;" edge="1" parent="WIyWlLk6GJQsqaUBKTNV-1" source="nIoF4qgthl-8SXtbTpO0-20" target="nIoF4qgthl-8SXtbTpO0-9">
          <mxGeometry relative="1" as="geometry" />
        </mxCell>
        <mxCell id="nIoF4qgthl-8SXtbTpO0-20" value="Avslutt er falsk" style="rhombus;whiteSpace=wrap;html=1;" vertex="1" parent="WIyWlLk6GJQsqaUBKTNV-1">
          <mxGeometry x="390.5" y="200" width="77.5" height="60" as="geometry" />
        </mxCell>
        <mxCell id="nIoF4qgthl-8SXtbTpO0-30" style="edgeStyle=orthogonalEdgeStyle;rounded=0;orthogonalLoop=1;jettySize=auto;html=1;entryX=0;entryY=0.5;entryDx=0;entryDy=0;" edge="1" parent="WIyWlLk6GJQsqaUBKTNV-1" source="nIoF4qgthl-8SXtbTpO0-23" target="nIoF4qgthl-8SXtbTpO0-29">
          <mxGeometry relative="1" as="geometry" />
        </mxCell>
        <mxCell id="nIoF4qgthl-8SXtbTpO0-34" value="" style="edgeStyle=orthogonalEdgeStyle;rounded=0;orthogonalLoop=1;jettySize=auto;html=1;" edge="1" parent="WIyWlLk6GJQsqaUBKTNV-1" source="nIoF4qgthl-8SXtbTpO0-23" target="nIoF4qgthl-8SXtbTpO0-33">
          <mxGeometry relative="1" as="geometry" />
        </mxCell>
        <mxCell id="nIoF4qgthl-8SXtbTpO0-23" value="Valg er 4&lt;div&gt;Avslutt er sann&lt;/div&gt;" style="rhombus;whiteSpace=wrap;html=1;" vertex="1" parent="WIyWlLk6GJQsqaUBKTNV-1">
          <mxGeometry x="360" y="340" width="130" height="70" as="geometry" />
        </mxCell>
        <mxCell id="nIoF4qgthl-8SXtbTpO0-29" value="" style="ellipse;html=1;shape=endState;fillColor=#000000;strokeColor=#ff0000;" vertex="1" parent="WIyWlLk6GJQsqaUBKTNV-1">
          <mxGeometry x="540" y="360" width="30" height="30" as="geometry" />
        </mxCell>
        <mxCell id="nIoF4qgthl-8SXtbTpO0-31" value="Ja" style="text;html=1;align=center;verticalAlign=middle;resizable=0;points=[];autosize=1;strokeColor=none;fillColor=none;" vertex="1" parent="WIyWlLk6GJQsqaUBKTNV-1">
          <mxGeometry x="485" y="350" width="40" height="30" as="geometry" />
        </mxCell>
        <mxCell id="nIoF4qgthl-8SXtbTpO0-32" value="Nei" style="text;html=1;align=center;verticalAlign=middle;resizable=0;points=[];autosize=1;strokeColor=none;fillColor=none;" vertex="1" parent="WIyWlLk6GJQsqaUBKTNV-1">
          <mxGeometry x="440" y="400" width="40" height="30" as="geometry" />
        </mxCell>
        <mxCell id="nIoF4qgthl-8SXtbTpO0-36" value="" style="edgeStyle=orthogonalEdgeStyle;rounded=0;orthogonalLoop=1;jettySize=auto;html=1;" edge="1" parent="WIyWlLk6GJQsqaUBKTNV-1" source="nIoF4qgthl-8SXtbTpO0-33" target="nIoF4qgthl-8SXtbTpO0-35">
          <mxGeometry relative="1" as="geometry" />
        </mxCell>
        <mxCell id="nIoF4qgthl-8SXtbTpO0-33" value="&lt;div&gt;&lt;br&gt;&lt;/div&gt;&lt;div&gt;Hvis valutaalternativer&lt;/div&gt;&lt;div&gt;&lt;br&gt;&lt;/div&gt;" style="rounded=1;whiteSpace=wrap;html=1;" vertex="1" parent="WIyWlLk6GJQsqaUBKTNV-1">
          <mxGeometry x="365" y="430" width="120" height="40" as="geometry" />
        </mxCell>
        <mxCell id="nIoF4qgthl-8SXtbTpO0-56" value="" style="edgeStyle=orthogonalEdgeStyle;rounded=0;orthogonalLoop=1;jettySize=auto;html=1;" edge="1" parent="WIyWlLk6GJQsqaUBKTNV-1" source="nIoF4qgthl-8SXtbTpO0-35">
          <mxGeometry relative="1" as="geometry">
            <mxPoint x="425" y="575" as="targetPoint" />
          </mxGeometry>
        </mxCell>
        <mxCell id="nIoF4qgthl-8SXtbTpO0-74" style="edgeStyle=orthogonalEdgeStyle;rounded=0;orthogonalLoop=1;jettySize=auto;html=1;exitX=1;exitY=0.5;exitDx=0;exitDy=0;entryX=0.5;entryY=0;entryDx=0;entryDy=0;" edge="1" parent="WIyWlLk6GJQsqaUBKTNV-1" source="nIoF4qgthl-8SXtbTpO0-35" target="nIoF4qgthl-8SXtbTpO0-73">
          <mxGeometry relative="1" as="geometry" />
        </mxCell>
        <mxCell id="nIoF4qgthl-8SXtbTpO0-35" value="&lt;div&gt;Valg er 1, 2 eller 3&lt;/div&gt;" style="rhombus;whiteSpace=wrap;html=1;" vertex="1" parent="WIyWlLk6GJQsqaUBKTNV-1">
          <mxGeometry x="381.25" y="490" width="86.25" height="65" as="geometry" />
        </mxCell>
        <mxCell id="nIoF4qgthl-8SXtbTpO0-40" value="1" style="text;html=1;align=center;verticalAlign=middle;resizable=0;points=[];autosize=1;strokeColor=none;fillColor=none;" vertex="1" parent="WIyWlLk6GJQsqaUBKTNV-1">
          <mxGeometry x="335" y="490" width="30" height="30" as="geometry" />
        </mxCell>
        <mxCell id="nIoF4qgthl-8SXtbTpO0-42" value="" style="edgeStyle=orthogonalEdgeStyle;rounded=0;orthogonalLoop=1;jettySize=auto;html=1;entryX=0.5;entryY=0;entryDx=0;entryDy=0;" edge="1" parent="WIyWlLk6GJQsqaUBKTNV-1" source="nIoF4qgthl-8SXtbTpO0-35" target="nIoF4qgthl-8SXtbTpO0-43">
          <mxGeometry relative="1" as="geometry">
            <mxPoint x="210" y="540" as="targetPoint" />
            <mxPoint x="394" y="515" as="sourcePoint" />
          </mxGeometry>
        </mxCell>
        <mxCell id="nIoF4qgthl-8SXtbTpO0-54" style="edgeStyle=orthogonalEdgeStyle;rounded=0;orthogonalLoop=1;jettySize=auto;html=1;exitX=1;exitY=0.5;exitDx=0;exitDy=0;" edge="1" parent="WIyWlLk6GJQsqaUBKTNV-1" source="nIoF4qgthl-8SXtbTpO0-43" target="nIoF4qgthl-8SXtbTpO0-50">
          <mxGeometry relative="1" as="geometry" />
        </mxCell>
        <mxCell id="nIoF4qgthl-8SXtbTpO0-43" value="Valutaalternativ&amp;nbsp;" style="rhombus;whiteSpace=wrap;html=1;" vertex="1" parent="WIyWlLk6GJQsqaUBKTNV-1">
          <mxGeometry x="80" y="570" width="110" height="50" as="geometry" />
        </mxCell>
        <mxCell id="nIoF4qgthl-8SXtbTpO0-94" style="edgeStyle=orthogonalEdgeStyle;rounded=0;orthogonalLoop=1;jettySize=auto;html=1;exitX=0.5;exitY=1;exitDx=0;exitDy=0;" edge="1" parent="WIyWlLk6GJQsqaUBKTNV-1" source="nIoF4qgthl-8SXtbTpO0-44">
          <mxGeometry relative="1" as="geometry">
            <mxPoint x="80" y="760" as="targetPoint" />
          </mxGeometry>
        </mxCell>
        <mxCell id="nIoF4qgthl-8SXtbTpO0-44" value="&lt;div&gt;&lt;br&gt;&lt;/div&gt;Konverterer nok til dollar&lt;div&gt;&lt;br&gt;&lt;/div&gt;" style="rounded=1;whiteSpace=wrap;html=1;" vertex="1" parent="WIyWlLk6GJQsqaUBKTNV-1">
          <mxGeometry x="20" y="670" width="120" height="30" as="geometry" />
        </mxCell>
        <mxCell id="nIoF4qgthl-8SXtbTpO0-46" value="" style="endArrow=classic;html=1;rounded=0;exitX=0;exitY=0.5;exitDx=0;exitDy=0;" edge="1" parent="WIyWlLk6GJQsqaUBKTNV-1" source="nIoF4qgthl-8SXtbTpO0-43" target="nIoF4qgthl-8SXtbTpO0-44">
          <mxGeometry width="50" height="50" relative="1" as="geometry">
            <mxPoint x="80" y="600" as="sourcePoint" />
            <mxPoint x="130" y="550" as="targetPoint" />
          </mxGeometry>
        </mxCell>
        <mxCell id="nIoF4qgthl-8SXtbTpO0-48" value="1" style="text;html=1;align=center;verticalAlign=middle;resizable=0;points=[];autosize=1;strokeColor=none;fillColor=none;" vertex="1" parent="WIyWlLk6GJQsqaUBKTNV-1">
          <mxGeometry x="55" y="620" width="30" height="30" as="geometry" />
        </mxCell>
        <mxCell id="nIoF4qgthl-8SXtbTpO0-49" value="2" style="text;html=1;align=center;verticalAlign=middle;resizable=0;points=[];autosize=1;strokeColor=none;fillColor=none;" vertex="1" parent="WIyWlLk6GJQsqaUBKTNV-1">
          <mxGeometry x="205" y="620" width="30" height="30" as="geometry" />
        </mxCell>
        <mxCell id="nIoF4qgthl-8SXtbTpO0-95" style="edgeStyle=orthogonalEdgeStyle;rounded=0;orthogonalLoop=1;jettySize=auto;html=1;exitX=0.5;exitY=1;exitDx=0;exitDy=0;" edge="1" parent="WIyWlLk6GJQsqaUBKTNV-1" source="nIoF4qgthl-8SXtbTpO0-50">
          <mxGeometry relative="1" as="geometry">
            <mxPoint x="210" y="760" as="targetPoint" />
          </mxGeometry>
        </mxCell>
        <mxCell id="nIoF4qgthl-8SXtbTpO0-50" value="Konvertering dollar til nok" style="rounded=1;whiteSpace=wrap;html=1;" vertex="1" parent="WIyWlLk6GJQsqaUBKTNV-1">
          <mxGeometry x="150" y="670" width="120" height="30" as="geometry" />
        </mxCell>
        <mxCell id="nIoF4qgthl-8SXtbTpO0-57" value="2" style="text;html=1;align=center;verticalAlign=middle;resizable=0;points=[];autosize=1;strokeColor=none;fillColor=none;" vertex="1" parent="WIyWlLk6GJQsqaUBKTNV-1">
          <mxGeometry x="380" y="545" width="30" height="30" as="geometry" />
        </mxCell>
        <mxCell id="nIoF4qgthl-8SXtbTpO0-58" value="3" style="text;html=1;align=center;verticalAlign=middle;resizable=0;points=[];autosize=1;strokeColor=none;fillColor=none;" vertex="1" parent="WIyWlLk6GJQsqaUBKTNV-1">
          <mxGeometry x="500" y="490" width="30" height="30" as="geometry" />
        </mxCell>
        <mxCell id="nIoF4qgthl-8SXtbTpO0-96" style="edgeStyle=orthogonalEdgeStyle;rounded=0;orthogonalLoop=1;jettySize=auto;html=1;exitX=0.5;exitY=1;exitDx=0;exitDy=0;" edge="1" parent="WIyWlLk6GJQsqaUBKTNV-1" source="nIoF4qgthl-8SXtbTpO0-62">
          <mxGeometry relative="1" as="geometry">
            <mxPoint x="360" y="760" as="targetPoint" />
            <Array as="points">
              <mxPoint x="351" y="700" />
              <mxPoint x="351" y="760" />
            </Array>
          </mxGeometry>
        </mxCell>
        <mxCell id="nIoF4qgthl-8SXtbTpO0-62" value="Konverterer nok til euro" style="rounded=1;whiteSpace=wrap;html=1;" vertex="1" parent="WIyWlLk6GJQsqaUBKTNV-1">
          <mxGeometry x="300" y="670" width="120" height="30" as="geometry" />
        </mxCell>
        <mxCell id="nIoF4qgthl-8SXtbTpO0-97" style="edgeStyle=orthogonalEdgeStyle;rounded=0;orthogonalLoop=1;jettySize=auto;html=1;exitX=0.5;exitY=1;exitDx=0;exitDy=0;" edge="1" parent="WIyWlLk6GJQsqaUBKTNV-1" source="nIoF4qgthl-8SXtbTpO0-63">
          <mxGeometry relative="1" as="geometry">
            <mxPoint x="510" y="760" as="targetPoint" />
          </mxGeometry>
        </mxCell>
        <mxCell id="nIoF4qgthl-8SXtbTpO0-63" value="Konverterer euro til nok" style="rounded=1;whiteSpace=wrap;html=1;" vertex="1" parent="WIyWlLk6GJQsqaUBKTNV-1">
          <mxGeometry x="450" y="670" width="120" height="30" as="geometry" />
        </mxCell>
        <mxCell id="nIoF4qgthl-8SXtbTpO0-71" value="2" style="text;html=1;align=center;verticalAlign=middle;resizable=0;points=[];autosize=1;strokeColor=none;fillColor=none;" vertex="1" parent="WIyWlLk6GJQsqaUBKTNV-1">
          <mxGeometry x="515" y="618" width="30" height="30" as="geometry" />
        </mxCell>
        <mxCell id="nIoF4qgthl-8SXtbTpO0-86" style="edgeStyle=orthogonalEdgeStyle;rounded=0;orthogonalLoop=1;jettySize=auto;html=1;exitX=0;exitY=0.5;exitDx=0;exitDy=0;entryX=0.5;entryY=0;entryDx=0;entryDy=0;" edge="1" parent="WIyWlLk6GJQsqaUBKTNV-1" source="nIoF4qgthl-8SXtbTpO0-72" target="nIoF4qgthl-8SXtbTpO0-62">
          <mxGeometry relative="1" as="geometry">
            <Array as="points">
              <mxPoint x="365" y="670" />
            </Array>
          </mxGeometry>
        </mxCell>
        <mxCell id="nIoF4qgthl-8SXtbTpO0-87" style="edgeStyle=orthogonalEdgeStyle;rounded=0;orthogonalLoop=1;jettySize=auto;html=1;exitX=1;exitY=0.5;exitDx=0;exitDy=0;" edge="1" parent="WIyWlLk6GJQsqaUBKTNV-1" source="nIoF4qgthl-8SXtbTpO0-72" target="nIoF4qgthl-8SXtbTpO0-63">
          <mxGeometry relative="1" as="geometry" />
        </mxCell>
        <mxCell id="nIoF4qgthl-8SXtbTpO0-72" value="&lt;div&gt;Valutaalternativ&amp;nbsp;&lt;/div&gt;" style="rhombus;whiteSpace=wrap;html=1;" vertex="1" parent="WIyWlLk6GJQsqaUBKTNV-1">
          <mxGeometry x="365" y="575" width="115" height="45" as="geometry" />
        </mxCell>
        <mxCell id="nIoF4qgthl-8SXtbTpO0-75" style="edgeStyle=orthogonalEdgeStyle;rounded=0;orthogonalLoop=1;jettySize=auto;html=1;exitX=0;exitY=0.5;exitDx=0;exitDy=0;entryX=0.5;entryY=0;entryDx=0;entryDy=0;" edge="1" parent="WIyWlLk6GJQsqaUBKTNV-1" source="nIoF4qgthl-8SXtbTpO0-73" target="nIoF4qgthl-8SXtbTpO0-76">
          <mxGeometry relative="1" as="geometry">
            <mxPoint x="640" y="670" as="targetPoint" />
          </mxGeometry>
        </mxCell>
        <mxCell id="nIoF4qgthl-8SXtbTpO0-78" style="edgeStyle=orthogonalEdgeStyle;rounded=0;orthogonalLoop=1;jettySize=auto;html=1;exitX=1;exitY=0.5;exitDx=0;exitDy=0;entryX=0.596;entryY=0.025;entryDx=0;entryDy=0;entryPerimeter=0;" edge="1" parent="WIyWlLk6GJQsqaUBKTNV-1" source="nIoF4qgthl-8SXtbTpO0-73" target="nIoF4qgthl-8SXtbTpO0-79">
          <mxGeometry relative="1" as="geometry">
            <mxPoint x="810" y="670" as="targetPoint" />
          </mxGeometry>
        </mxCell>
        <mxCell id="nIoF4qgthl-8SXtbTpO0-73" value="&lt;div&gt;Valutaalternativ&amp;nbsp;&lt;/div&gt;" style="rhombus;whiteSpace=wrap;html=1;" vertex="1" parent="WIyWlLk6GJQsqaUBKTNV-1">
          <mxGeometry x="680" y="575" width="110" height="45" as="geometry" />
        </mxCell>
        <mxCell id="nIoF4qgthl-8SXtbTpO0-99" style="edgeStyle=orthogonalEdgeStyle;rounded=0;orthogonalLoop=1;jettySize=auto;html=1;exitX=0.5;exitY=1;exitDx=0;exitDy=0;" edge="1" parent="WIyWlLk6GJQsqaUBKTNV-1" source="nIoF4qgthl-8SXtbTpO0-76">
          <mxGeometry relative="1" as="geometry">
            <mxPoint x="660" y="760" as="targetPoint" />
          </mxGeometry>
        </mxCell>
        <mxCell id="nIoF4qgthl-8SXtbTpO0-76" value="Konverterer nok til sek" style="rounded=1;whiteSpace=wrap;html=1;" vertex="1" parent="WIyWlLk6GJQsqaUBKTNV-1">
          <mxGeometry x="600" y="665" width="120" height="35" as="geometry" />
        </mxCell>
        <mxCell id="nIoF4qgthl-8SXtbTpO0-77" value="1" style="text;html=1;align=center;verticalAlign=middle;resizable=0;points=[];autosize=1;strokeColor=none;fillColor=none;" vertex="1" parent="WIyWlLk6GJQsqaUBKTNV-1">
          <mxGeometry x="635" y="618" width="30" height="30" as="geometry" />
        </mxCell>
        <mxCell id="nIoF4qgthl-8SXtbTpO0-98" style="edgeStyle=orthogonalEdgeStyle;rounded=0;orthogonalLoop=1;jettySize=auto;html=1;exitX=0.5;exitY=1;exitDx=0;exitDy=0;" edge="1" parent="WIyWlLk6GJQsqaUBKTNV-1" source="nIoF4qgthl-8SXtbTpO0-79">
          <mxGeometry relative="1" as="geometry">
            <mxPoint x="800" y="760" as="targetPoint" />
          </mxGeometry>
        </mxCell>
        <mxCell id="nIoF4qgthl-8SXtbTpO0-79" value="Konverterer sek til nok" style="rounded=1;whiteSpace=wrap;html=1;" vertex="1" parent="WIyWlLk6GJQsqaUBKTNV-1">
          <mxGeometry x="740" y="665" width="120" height="35" as="geometry" />
        </mxCell>
        <mxCell id="nIoF4qgthl-8SXtbTpO0-88" value="1" style="text;html=1;align=center;verticalAlign=middle;resizable=0;points=[];autosize=1;strokeColor=none;fillColor=none;" vertex="1" parent="WIyWlLk6GJQsqaUBKTNV-1">
          <mxGeometry x="315" y="618" width="30" height="30" as="geometry" />
        </mxCell>
        <mxCell id="nIoF4qgthl-8SXtbTpO0-90" value="" style="endArrow=none;html=1;rounded=0;" edge="1" parent="WIyWlLk6GJQsqaUBKTNV-1">
          <mxGeometry width="50" height="50" relative="1" as="geometry">
            <mxPoint x="80" y="760" as="sourcePoint" />
            <mxPoint x="210" y="760" as="targetPoint" />
          </mxGeometry>
        </mxCell>
        <mxCell id="nIoF4qgthl-8SXtbTpO0-92" value="" style="endArrow=none;html=1;rounded=0;" edge="1" parent="WIyWlLk6GJQsqaUBKTNV-1">
          <mxGeometry width="50" height="50" relative="1" as="geometry">
            <mxPoint x="360" y="760" as="sourcePoint" />
            <mxPoint x="510" y="760" as="targetPoint" />
          </mxGeometry>
        </mxCell>
        <mxCell id="nIoF4qgthl-8SXtbTpO0-93" value="" style="endArrow=none;html=1;rounded=0;" edge="1" parent="WIyWlLk6GJQsqaUBKTNV-1">
          <mxGeometry width="50" height="50" relative="1" as="geometry">
            <mxPoint x="660" y="760" as="sourcePoint" />
            <mxPoint x="800" y="760" as="targetPoint" />
          </mxGeometry>
        </mxCell>
        <mxCell id="nIoF4qgthl-8SXtbTpO0-100" value="Avslutt er falsk" style="rhombus;whiteSpace=wrap;html=1;" vertex="1" parent="WIyWlLk6GJQsqaUBKTNV-1">
          <mxGeometry x="371.25" y="830" width="102.5" height="50" as="geometry" />
        </mxCell>
        <mxCell id="nIoF4qgthl-8SXtbTpO0-103" value="" style="endArrow=classic;html=1;rounded=0;entryX=0.119;entryY=0.6;entryDx=0;entryDy=0;entryPerimeter=0;" edge="1" parent="WIyWlLk6GJQsqaUBKTNV-1" target="nIoF4qgthl-8SXtbTpO0-100">
          <mxGeometry width="50" height="50" relative="1" as="geometry">
            <mxPoint x="160" y="760" as="sourcePoint" />
            <mxPoint x="220" y="810" as="targetPoint" />
          </mxGeometry>
        </mxCell>
        <mxCell id="nIoF4qgthl-8SXtbTpO0-105" value="" style="endArrow=classic;html=1;rounded=0;entryX=0.5;entryY=0;entryDx=0;entryDy=0;" edge="1" parent="WIyWlLk6GJQsqaUBKTNV-1" target="nIoF4qgthl-8SXtbTpO0-100">
          <mxGeometry width="50" height="50" relative="1" as="geometry">
            <mxPoint x="420" y="760" as="sourcePoint" />
            <mxPoint x="470" y="710" as="targetPoint" />
          </mxGeometry>
        </mxCell>
        <mxCell id="nIoF4qgthl-8SXtbTpO0-106" value="" style="endArrow=classic;html=1;rounded=0;entryX=1;entryY=0.5;entryDx=0;entryDy=0;" edge="1" parent="WIyWlLk6GJQsqaUBKTNV-1" target="nIoF4qgthl-8SXtbTpO0-100">
          <mxGeometry width="50" height="50" relative="1" as="geometry">
            <mxPoint x="720" y="760" as="sourcePoint" />
            <mxPoint x="770" y="710" as="targetPoint" />
          </mxGeometry>
        </mxCell>
        <mxCell id="nIoF4qgthl-8SXtbTpO0-107" value="" style="endArrow=classic;html=1;rounded=0;entryX=1;entryY=0.5;entryDx=0;entryDy=0;" edge="1" parent="WIyWlLk6GJQsqaUBKTNV-1" target="nIoF4qgthl-8SXtbTpO0-20">
          <mxGeometry width="50" height="50" relative="1" as="geometry">
            <mxPoint x="440" y="870" as="sourcePoint" />
            <mxPoint x="480" y="240" as="targetPoint" />
            <Array as="points">
              <mxPoint x="970" y="870" />
              <mxPoint x="970" y="230" />
            </Array>
          </mxGeometry>
        </mxCell>
      </root>
    </mxGraphModel>
  </diagram>
</mxfile>
